<?xml version="1.0" encoding="utf-8"?>
<!-- Generator: Adobe Illustrator 18.1.1, SVG Export Plug-In . SVG Version: 6.00 Build 0)  -->
<svg version="1.1" id="primary_Logo" xmlns="http://www.w3.org/2000/svg" xmlns:xlink="http://www.w3.org/1999/xlink" x="0px"
	 y="0px" viewBox="0 0 115 99" enable-background="new 0 0 115 99" xml:space="preserve">
<g id="XMLID_110_">
	<g id="XMLID_111_">
		<path id="XMLID_115_" fill="#D0D2D3" d="M78.5,5.2c-1.6-0.8-2.9,0-2.9,1.8v70.9l29.1,14.5c3.2,1.6,5.8,0.5,5.8-2.5V21.7
			c0-0.3-0.2-0.5-0.4-0.7L78.5,5.2z"/>
		<path id="XMLID_114_" fill="#A6A8AB" d="M40.7,60.5L73.9,6.5c0.9-1.5,3-2.1,4.6-1.3L110.1,21c0.2,0.1,0.3,0.4,0.2,0.6L75.6,77.9
			L40.7,60.5z"/>
		<path id="XMLID_113_" fill="#808184" d="M10.6,6.2C8,4.9,7.1,5.8,8.6,8.4l32.1,52.1l34.9,17.4L40.8,21.3c0-0.1-0.1-0.1-0.2-0.2
			L10.6,6.2z"/>
		<path id="XMLID_112_" fill="#58595B" d="M40.7,89.9c0,3-2.2,4.3-4.8,3L8.7,79.4c-1.6-0.8-2.9-2.9-2.9-4.7V8.1
			c0-2.4,1.7-3.5,3.9-2.4l30.8,15.4c0.1,0.1,0.2,0.2,0.2,0.3V89.9z"/>
	</g>
</g>
</svg>
